<svg width="23" height="14" viewBox="0 0 23 14" fill="none" xmlns="http://www.w3.org/2000/svg">
<path d="M21.4157 1.10386C21.0254 0.715842 20.4974 0.498047 19.947 0.498047C19.3966 0.498047 18.8686 0.715842 18.4782 1.10386L10.9991 8.47887L3.62406 1.10386C3.23372 0.715842 2.7057 0.498047 2.15531 0.498047C1.60492 0.498047 1.0769 0.715842 0.686559 1.10386C0.491291 1.29754 0.336303 1.52796 0.230535 1.78183C0.124767 2.0357 0.0703125 2.30801 0.0703125 2.58303C0.0703125 2.85806 0.124767 3.13036 0.230535 3.38423C0.336303 3.63811 0.491291 3.86853 0.686559 4.0622L9.51989 12.8955C9.71357 13.0908 9.94398 13.2458 10.1979 13.3516C10.4517 13.4573 10.724 13.5118 10.9991 13.5118C11.2741 13.5118 11.5464 13.4573 11.8003 13.3516C12.0541 13.2458 12.2846 13.0908 12.4782 12.8955L21.4157 4.0622C21.611 3.86853 21.766 3.63811 21.8717 3.38423C21.9775 3.13036 22.032 2.85806 22.032 2.58303C22.032 2.30801 21.9775 2.0357 21.8717 1.78183C21.766 1.52796 21.611 1.29754 21.4157 1.10386Z" fill="#f59b00"/>
</svg>